<?xml version="1.0" encoding="UTF-8" standalone="no"?><!DOCTYPE svg PUBLIC "-//W3C//DTD SVG 1.1//EN" "http://www.w3.org/Graphics/SVG/1.1/DTD/svg11.dtd"><svg width="100%" height="100%" viewBox="0 0 385 115" version="1.1" xmlns="http://www.w3.org/2000/svg" xmlns:xlink="http://www.w3.org/1999/xlink" xml:space="preserve" xmlns:serif="http://www.serif.com/" style="fill-rule:evenodd;clip-rule:evenodd;stroke-linecap:round;"><rect x="340.184" y="75.117" width="23.43" height="4.476" style="fill:#0ff;"/><rect x="322.282" y="74.802" width="9.446" height="5.056" style="fill:#0ff;"/><rect x="333.396" y="76.641" width="5.768" height="2.741" style="fill:#ff5b00;"/><rect x="309.034" y="80.893" width="6.425" height="7.742"/><rect x="317.358" y="81.642" width="53.872" height="9.216" style="fill:#ebebeb;"/><g><path d="M32.783,11.133l13.113,0c2.459,0 2.459,2.458 2.459,2.458l-0.328,18.031c0,0 -2.131,0.819 -8.688,0.819c-6.556,0 -8.522,-0.819 -8.522,-0.819l-0.492,-18.031c0,0 0,-2.458 2.458,-2.458Z" style="fill:#56b4e9;fill-rule:nonzero;"/><path d="M30.325,32.441c0,0 2.458,0.82 9.014,0.82c6.557,0 9.016,-0.82 9.016,-0.82l-0.328,3.279c0,0 -2.131,0.82 -8.688,0.82c-6.556,0 -8.687,-0.82 -8.687,-0.82l-0.327,-3.279Z" style="fill:#56b4e9;fill-rule:nonzero;"/><path d="M31.144,36.54c0,0 3.279,0.655 8.195,0.655c4.918,0 8.197,-0.655 8.197,-0.655l-0.329,9.343l-7.868,6.064l-7.866,-6.064l-0.329,-9.343Z" style="fill:#56b4e9;fill-rule:nonzero;"/><path d="M31.799,49.653l6.065,4.589l0,2.131l-5.572,3.114l-0.493,-9.834Z" style="fill:#56b4e9;fill-rule:nonzero;"/><path d="M40.814,54.405l6.066,-4.589l-0.492,9.836l-5.574,-3.279l0,-1.968Z" style="fill:#56b4e9;fill-rule:nonzero;"/><path d="M33.602,61.946l5.737,-3.278l5.737,3.278l-11.474,0Z" style="fill:#56b4e9;fill-rule:nonzero;"/><path d="M32.455,65.224c0,0 1.968,0.328 6.884,0.328c4.918,0 6.885,-0.328 6.885,-0.328l0,0.492l-6.885,4.754l-6.884,-4.754l0,-0.492Z" style="fill:#56b4e9;fill-rule:nonzero;"/><path d="M40.65,75.06l0,-2.295l0.493,-0.329c3.114,0 4.918,-1.146 4.918,-1.146l-2.295,3.933c0,0 -1.148,0.656 -1.967,0.656l-1.149,-0.819Z" style="fill:#56b4e9;fill-rule:nonzero;"/><path d="M32.619,71.29c0,0 1.804,1.146 4.918,1.146l0.492,0.329l0,2.295l-1.148,0.819c-0.819,0 -1.967,-0.656 -1.967,-0.656l-2.295,-3.933Z" style="fill:#56b4e9;fill-rule:nonzero;"/><path d="M31.144,60.308c0,0 -11.475,0 -11.475,1.638c0,1.639 19.67,1.639 19.67,1.639c0,0 21.31,0 21.31,-1.639c0,-1.638 -13.113,-1.638 -13.113,-1.638m-22.949,-18.031l3.279,21.308l-1.64,21.31m27.866,-42.618l-3.279,21.308l1.641,21.31" style="fill:none;stroke:#000;stroke-width:1.97px;"/><path d="M24.587,42.277l14.752,11.473l14.753,-11.473m-14.753,11.473l0,3.279l-11.473,6.556m11.473,-6.556l11.474,6.556m-22.947,0.656l11.473,8.195l0,3.279l-13.113,9.834m24.587,-21.308l-11.474,8.195m0,3.279l13.115,9.834" style="fill:none;stroke:#000;stroke-width:1.31px;stroke-linecap:butt;"/></g><path d="M162.028,31.462l0,55.06" style="fill:#009e73;fill-rule:nonzero;stroke:#000;stroke-width:2.3px;stroke-linecap:butt;"/><path d="M162.028,33.43l13.765,3.931l-27.53,0l13.765,-3.931Z" style="fill:#009e73;fill-rule:nonzero;"/><path d="M162.028,45.227l13.765,-3.932l-27.53,0l13.765,3.932Z" style="fill:#009e73;fill-rule:nonzero;"/><path d="M102.195,45.915l16.979,4.991c1.044,0.308 1.639,1.396 1.331,2.441l-3.328,11.32c-0.307,1.045 -1.395,1.638 -2.44,1.331l-16.978,-4.991c-1.047,-0.308 -1.641,-1.396 -1.334,-2.441l3.328,-11.32c0.307,-1.045 1.395,-1.639 2.442,-1.331Z" style="fill:#009e73;fill-rule:nonzero;"/><path d="M149.846,49.971l17.355,-3.456c1.068,-0.213 2.1,0.475 2.313,1.543l2.304,11.572c0.213,1.068 -0.476,2.099 -1.544,2.312l-17.356,3.457c-1.068,0.212 -2.099,-0.476 -2.312,-1.544l-2.305,-11.572c-0.212,-1.068 0.476,-2.099 1.545,-2.312Z" style="fill:#009e73;fill-rule:nonzero;"/><path d="M106.969,23.596l0,62.926" style="fill:#009e73;fill-rule:nonzero;stroke:#000;stroke-width:2.07px;stroke-linecap:butt;"/><path d="M122.356,26.868c-0.903,4.248 -8.524,6.228 -17.023,4.423c-8.498,-1.807 -14.655,-6.715 -13.753,-10.965c0.904,-4.249 8.526,-6.23 17.024,-4.422c8.499,1.806 14.656,6.715 13.752,10.964Z" style="fill:#009e73;fill-rule:nonzero;"/><path d="M134.497,58.992l20.645,26.272" style="fill:#009e73;fill-rule:nonzero;"/><path d="M134.62,57.731l0.112,0.016l0.111,0.026l0.108,0.036l0.104,0.045l0.1,0.055l0.095,0.063l0.088,0.072l0.082,0.079l0.074,0.086l20.645,26.272l0.066,0.092l0.057,0.098l0.049,0.103l0.039,0.107l0.03,0.11l0.019,0.112l0.01,0.113l-0.001,0.114l-0.011,0.113l-0.021,0.112l-0.031,0.109l-0.041,0.106l-0.05,0.102l-0.059,0.098l-0.068,0.091l-0.075,0.085l-0.083,0.078l-0.089,0.071l-0.096,0.061l-0.1,0.054l-0.105,0.044l-0.108,0.034l-0.112,0.024l-0.112,0.015l-0.114,0.004l-0.114,-0.006l-0.112,-0.016l-0.111,-0.026l-0.108,-0.036l-0.104,-0.045l-0.1,-0.055l-0.094,-0.063l-0.089,-0.072l-0.081,-0.079l-0.074,-0.086l-20.645,-26.272l-0.066,-0.092l-0.058,-0.098l-0.049,-0.103l-0.039,-0.107l-0.029,-0.11l-0.02,-0.112l-0.009,-0.113l0.001,-0.114l0.011,-0.113l0.021,-0.112l0.031,-0.109l0.04,-0.106l0.051,-0.102l0.059,-0.098l0.067,-0.091l0.075,-0.085l0.083,-0.078l0.09,-0.071l0.095,-0.062l0.101,-0.053l0.104,-0.044l0.109,-0.034l0.111,-0.025l0.113,-0.014l0.113,-0.004l0.114,0.006Z"/><path d="M134.497,58.992l-21.628,26.272" style="fill:#009e73;fill-rule:nonzero;"/><path d="M134.63,57.732l0.113,0.017l0.11,0.027l0.108,0.037l0.104,0.046l0.099,0.055l0.094,0.064l0.088,0.073l0.081,0.08l0.073,0.086l0.066,0.093l0.057,0.099l0.047,0.103l0.039,0.107l0.028,0.11l0.019,0.113l0.008,0.113l-0.002,0.114l-0.012,0.113l-0.022,0.111l-0.032,0.109l-0.041,0.106l-0.051,0.102l-0.06,0.097l-0.068,0.091l-21.629,26.271l-0.076,0.085l-0.083,0.077l-0.09,0.07l-0.096,0.061l-0.101,0.052l-0.105,0.043l-0.109,0.034l-0.111,0.023l-0.113,0.014l-0.114,0.003l-0.113,-0.007l-0.113,-0.017l-0.11,-0.027l-0.108,-0.037l-0.104,-0.046l-0.099,-0.055l-0.094,-0.065l-0.088,-0.072l-0.081,-0.08l-0.073,-0.086l-0.066,-0.093l-0.056,-0.099l-0.048,-0.103l-0.039,-0.107l-0.028,-0.11l-0.019,-0.113l-0.008,-0.113l0.002,-0.114l0.012,-0.113l0.022,-0.111l0.032,-0.11l0.041,-0.105l0.051,-0.102l0.06,-0.097l0.068,-0.091l21.629,-26.271l0.076,-0.085l0.083,-0.077l0.09,-0.07l0.096,-0.061l0.101,-0.052l0.105,-0.043l0.109,-0.034l0.111,-0.023l0.113,-0.014l0.114,-0.003l0.113,0.007Z"/><path d="M156.128,66.857c0,11.947 -9.684,21.631 -21.631,21.631c-11.945,0 -21.63,-9.684 -21.63,-21.631c0,-11.946 9.685,-21.63 21.63,-21.63c11.947,0 21.631,9.684 21.631,21.63Z" style="fill:#009e73;fill-rule:nonzero;"/><ellipse cx="134.498" cy="66.858" rx="21.63" ry="21.631" style="fill:#009e73;stroke:#000;stroke-width:0.92px;stroke-linecap:butt;stroke-linejoin:round;stroke-miterlimit:1.5;"/><path d="M241.549,94.907l0,-1.967c-5.9,0 -9.832,-1.966 -13.766,-5.9c-3.931,-3.932 -4.914,-11.798 -0.982,-19.663c3.933,0 4.916,-3.933 4.916,-7.866c0,-3.933 -3.934,-2.95 -3.934,-6.882c0,-3.933 0,-7.866 3.934,-10.816c3.932,-2.949 5.9,-3.932 6.883,-5.898c0.983,-1.967 1.573,-18.682 1.573,-20.648c0,-1.967 -1.573,-4.916 -0.59,-5.899c0.983,-0.983 0.983,-1.966 1.966,-1.966c0.982,0 0.982,0.983 1.967,1.966c0.983,0.983 -0.59,3.932 -0.59,5.899c0,1.966 0.59,18.681 1.573,20.648c0.983,1.966 2.949,2.949 6.883,5.898c3.932,2.95 3.932,6.883 3.932,10.816c0,3.932 -3.932,3.932 -3.932,6.882c0,2.95 0.983,7.866 5.897,7.866c3.934,7.865 2.951,15.731 -0.982,19.663c-3.932,3.934 -10.815,5.9 -13.766,5.9l0,1.967m-4.325,-27.53c0,1.179 0.197,1.375 1.18,1.966l6.293,0c0.982,-0.591 1.179,-0.787 1.179,-1.966l-2.162,0l-0.197,0.589l-3.933,0l-0.197,-0.589l-2.163,0Zm-5.506,-0.983c0,2.949 -0.392,5.309 -1.179,5.309c-0.983,0 -1.181,-0.394 -1.181,-0.787c0.983,0 0.983,-1.573 0,-1.573c-0.983,0 -0.983,0.983 -0.983,1.377c0,0.393 0.394,1.572 1.966,1.572c1.573,0 2.36,-2.949 2.36,-5.898c0,-0.475 0.01,-0.935 0.031,-1.372c0.106,-2.277 0.49,-3.937 1.15,-3.937c0.983,0 1.179,0.392 1.179,0.785c-0.982,0 -0.982,1.574 0,1.574c0.983,0 0.983,-0.983 0.983,-1.376c0,-0.394 -0.392,-1.574 -1.965,-1.574c-0.972,0 -1.643,1.123 -2.015,2.677c-0.231,0.964 -0.346,2.093 -0.346,3.223m18.484,0c0,2.949 0.394,5.309 1.181,5.309c0.983,0 1.179,-0.394 1.179,-0.787c-0.983,0 -0.983,-1.573 0,-1.573c0.983,0 0.983,0.983 0.983,1.377c0,0.393 -0.393,1.572 -1.966,1.572c-1.236,0 -1.986,-1.818 -2.251,-4.027c-0.073,-0.604 -0.109,-1.238 -0.109,-1.871c0,-2.95 -0.392,-5.309 -1.18,-5.309c-0.982,0 -1.179,0.392 -1.179,0.785c0.984,0 0.984,1.574 0,1.574c-0.984,0 -0.984,-0.983 -0.984,-1.376c0,-0.394 0.394,-1.574 1.968,-1.574c1.571,0 2.358,2.95 2.358,5.9Z" style="fill:#d55e00;"/><path d="M241.549,94.907l0,-1.967c-5.9,0 -9.832,-1.966 -13.766,-5.9c-3.931,-3.932 -4.914,-11.798 -0.982,-19.663c3.933,0 4.916,-3.933 4.916,-7.866c0,-3.933 -3.934,-2.95 -3.934,-6.882c0,-3.933 0,-7.866 3.934,-10.816c3.932,-2.949 5.9,-3.932 6.883,-5.898c0.983,-1.967 1.573,-18.682 1.573,-20.648c0,-1.967 -1.573,-4.916 -0.59,-5.899c0.983,-0.983 0.983,-1.966 1.966,-1.966c0.982,0 0.982,0.983 1.967,1.966c0.983,0.983 -0.59,3.932 -0.59,5.899c0,1.966 0.59,18.681 1.573,20.648c0.983,1.966 2.949,2.949 6.883,5.898c3.932,2.95 3.932,6.883 3.932,10.816c0,3.932 -3.932,3.932 -3.932,6.882c0,2.95 0.983,7.866 5.897,7.866c3.934,7.865 2.951,15.731 -0.982,19.663c-3.932,3.934 -10.815,5.9 -13.766,5.9l0,1.967l-0.982,0Z" style="fill:#d55e00;"/><path d="M238.206,67.377c0,1.179 0.197,1.375 1.18,1.966l6.293,0c0.076,-0.046 0.148,-0.09 0.215,-0.132c0.797,-0.495 0.964,-0.747 0.964,-1.834l-2.162,0l-0.197,0.589l-3.933,0l-0.197,-0.589l-2.163,0Z" style="fill:#fff;"/><path d="M232.7,66.394c0,2.949 -0.392,5.309 -1.179,5.309c-0.983,0 -1.181,-0.394 -1.181,-0.787c0.983,0 0.983,-1.573 0,-1.573c-0.983,0 -0.983,0.983 -0.983,1.377c0,0.393 0.394,1.572 1.966,1.572c1.573,0 2.36,-2.949 2.36,-5.898c0,-0.475 0.01,-0.935 0.031,-1.372c0.106,-2.277 0.49,-3.937 1.15,-3.937c0.983,0 1.179,0.392 1.179,0.785c-0.982,0 -0.982,1.574 0,1.574c0.983,0 0.983,-0.983 0.983,-1.376c0,-0.394 -0.392,-1.574 -1.965,-1.574c-0.972,0 -1.643,1.123 -2.015,2.677c-0.015,0.064 -0.03,0.129 -0.045,0.195c-0.201,0.919 -0.301,1.974 -0.301,3.028Z"/><path d="M251.184,66.394c0,2.949 0.394,5.309 1.181,5.309c0.983,0 1.179,-0.394 1.179,-0.787c-0.983,0 -0.983,-1.573 0,-1.573c0.983,0 0.983,0.983 0.983,1.377c0,0.393 -0.393,1.572 -1.966,1.572c-1.236,0 -1.986,-1.818 -2.251,-4.027c-0.073,-0.604 -0.109,-1.238 -0.109,-1.871c0,-2.95 -0.392,-5.309 -1.18,-5.309c-0.982,0 -1.179,0.392 -1.179,0.785c0.984,0 0.984,1.574 0,1.574c-0.984,0 -0.984,-0.983 -0.984,-1.376c0,-0.394 0.394,-1.574 1.968,-1.574c1.571,0 2.358,2.95 2.358,5.9Z"/><rect x="241.555" y="92.839" width="0.977" height="2.068"/><path d="M307.12,66.889l68.405,0l0,23.794l-4.462,0l0,-8.923l-53.534,0l0,8.923l-10.409,0m1.488,-17.103l0,0.298l65.429,0l0,-0.298m-40.15,3.718l0,1.487l4.461,0l0,-1.487m28.254,-1.486l0,1.486l4.461,0l0,-1.486l-4.461,0m0.148,0.148l0,1.19l4.165,0l0,-1.19m-57.847,-1.635l0,4.46l2.231,0l0,-4.46l1.487,0l0,4.46l2.23,0l0,-4.46l-5.948,0m0.298,0.297l0,3.866l1.635,0l0,-3.866l2.082,0l0,3.866l1.636,0l0,-3.866m-1.19,-4.015l0,1.487l5.948,0l0,-1.487m17.845,-1.487l0,0.744l29.741,0l0,-0.744m-29.741,2.23l0,0.744l29.741,0l0,-0.744m-47.586,4.462l0,1.04l1.487,0l0,-1.04l0.298,0l0,1.04l1.487,0l0,-1.04l0.298,0l0,1.04l1.487,0l0,-1.04l0.297,0l0,1.04l1.488,0l0,-1.04m-6.842,2.23l0,1.041l1.487,0l0,-1.041l0.298,0l0,1.041l1.487,0l0,-1.041l0.298,0l0,1.041l1.487,0l0,-1.041l0.297,0l0,1.041l1.488,0l0,-1.041m11.003,-2.23l0,1.04l1.488,0l0,-1.04l0.297,0l0,1.04l1.486,0l0,-1.04l0.298,0l0,1.04l1.487,0l0,-1.04l0.298,0l0,1.04l1.487,0l0,-1.04l0.297,0l0,1.04l1.488,0l0,-1.04l0.296,0l0,1.04l1.487,0l0,-1.04l0.298,0l0,1.04l1.487,0l0,-1.04l0.297,0l0,1.04l1.488,0l0,-1.04l0.296,0l0,1.04l1.487,0l0,-1.04l0.298,0l0,1.04l1.487,0l0,-1.04l0.298,0l0,1.04l1.487,0l0,-1.04l0.297,0l0,1.04l1.488,0l0,-1.04m-21.117,2.23l0,1.041l1.488,0l0,-1.041l0.297,0l0,1.041l1.486,0l0,-1.041l0.298,0l0,1.041l1.487,0l0,-1.041l0.298,0l0,1.041l1.487,0l0,-1.041l0.297,0l0,1.041l1.488,0l0,-1.041l0.296,0l0,1.041l1.487,0l0,-1.041l0.298,0l0,1.041l1.487,0l0,-1.041l0.297,0l0,1.041l1.488,0l0,-1.041l0.296,0l0,1.041l1.487,0l0,-1.041l0.298,0l0,1.041l1.487,0l0,-1.041l0.298,0l0,1.041l1.487,0l0,-1.041l0.297,0l0,1.041l1.488,0l0,-1.041m-52.344,3.718l0,5.948l1.486,0l0,-5.948m1.487,0l0,5.948l1.488,0l0,-5.948" style="fill:#cc79a7;fill-rule:nonzero;"/><path d="M307.12,90.683l68.405,0l0,0.297l-68.405,0m11.896,-9.22l0,5.948l1.19,0l0,-5.948l1.19,0l0,5.948l1.19,0l0,-5.948l2.081,0l0,5.948l1.19,0l0,-5.948l1.19,0l0,5.948l1.189,0l0,-5.948l1.19,0l0,5.948l1.189,0l0,-5.948l2.082,0l0,5.948l1.19,0l0,-5.948l1.19,0l0,5.948l1.19,0l0,-5.948l2.081,0l0,5.948l1.19,0l0,-5.948l1.189,0l0,5.948l1.189,0l0,-5.948l1.191,0l0,5.948l1.19,0l0,-5.948l2.081,0l0,5.948l1.19,0l0,-5.948l1.19,0l0,5.948l1.19,0l0,-5.948l2.081,0l0,5.948l1.19,0l0,-5.948l1.189,0l0,5.948l1.189,0l0,-5.948l1.19,0l0,5.948l1.191,0l0,-5.948l2.081,0l0,5.948l1.19,0l0,-5.948l1.19,0l0,5.948l1.188,0l0,-5.948l2.083,0l0,5.948l1.189,0l0,-5.948l1.19,0l0,5.948l1.19,0l0,-5.948" style="fill-rule:nonzero;"/><path d="M304.839,18.447c0.033,-0.184 0.369,-0.276 0.748,-0.207c0.38,0.07 0.66,0.276 0.627,0.459c-0.034,0.184 -0.369,0.276 -0.749,0.207c-0.379,-0.07 -0.66,-0.275 -0.626,-0.459Z"/><path d="M314.227,15.922c-2.143,0 -2.653,2.143 -4.389,2.143c-1.633,0 -3.88,-0.918 -5.002,0.307c1.326,0.408 2.246,1.021 3.981,0.919c1.532,-0.204 2.859,-0.919 4.288,-1.327c2.246,-0.817 0.306,5.819 0.102,7.35c-1.021,5.615 -1.94,10.006 -2.858,14.498c0,-0.103 -0.205,-0.103 -0.307,-0.103c-0.204,0 -0.408,0.205 -0.51,0.408l-2.348,11.128c-0.102,0.409 0.408,0.817 0.714,0.613c-0.102,3.88 0.307,7.351 3.268,8.372c3.061,1.02 4.083,0 5.512,-1.531c2.655,-2.553 3.267,-9.7 6.33,-14.804c3.368,0.919 3.777,-2.144 0,-6.228c-2.451,-2.552 -3.573,-2.858 -5.718,-3.266c-2.041,-0.307 -0.918,2.348 -1.02,3.368c-0.225,2.043 -0.817,3.165 -1.634,6.024c-0.612,2.144 -1.225,4.491 -1.123,3.573c0.204,-2.654 1.633,-5.105 1.838,-8.065c0.204,-2.961 0.612,-7.044 0.612,-7.044c0,0 0.409,0.102 0.715,-0.205c0.307,-0.408 0.51,-2.246 0.204,-2.654c-0.306,-0.408 -0.714,-0.306 -0.714,-0.306c0.102,-1.021 0.102,-1.838 0.102,-1.838c1.225,0.409 1.429,-2.654 0.203,-2.552c0.205,-2.042 0.205,-3.879 0.307,-5.922c0,-1.633 -0.919,-2.756 -2.45,-2.756l-0.103,-0.102Zm3.574,19.601c0.579,0 1.847,0.73 2.885,1.474c0.609,0.437 1.139,0.879 1.403,1.181c1.633,1.736 2.756,3.981 2.041,4.492c-0.714,0.51 -3.266,-1.123 -5.002,-2.858c-1.633,-1.736 -2.45,-3.574 -1.736,-4.187c0.103,-0.102 0.205,-0.102 0.307,-0.102l0.102,0Z" style="fill:#cc79a7;fill-rule:nonzero;"/><path d="M321.9,37.926c1.958,1.915 3.018,4.012 2.366,4.679c-0.653,0.667 -2.773,-0.346 -4.731,-2.261c-1.959,-1.916 -3.019,-4.013 -2.366,-4.68c0.652,-0.667 2.772,0.346 4.731,2.262Z"/><path d="M368.04,32.253c0.946,0.945 1.891,1.891 1.891,4.727c0,3.782 -4.728,4.728 -5.389,6.902l-0.284,0.189c-0.945,-2.363 -3.309,0 -4.255,0.946c-0.945,0.946 -2.836,3.782 -0.284,4.822l-0.188,0.378c-2.837,1.891 -0.945,2.837 -3.782,5.673c-2.837,2.837 -7.564,1.891 -11.346,-1.891c-3.782,-3.782 -4.728,-8.509 -1.891,-11.346c2.836,-2.837 3.782,-0.945 5.673,-3.782l0.378,-0.189c1.04,2.553 3.876,0.662 4.822,-0.283c0.945,-0.946 3.309,-3.31 0.945,-4.255l0.19,-0.284c2.174,-0.662 3.119,-5.389 6.901,-5.389c2.837,0 3.782,0.945 4.728,1.891l8.982,-8.51l0,-0.472l-1.891,-1.892l0.473,-0.472l1.89,1.891l1.419,-1.419l-1.891,-1.89l0.472,-0.473l1.892,1.891l1.418,-0.946l0,-0.945l0.473,-0.473l0.946,0l0.945,-0.472l0.945,0.945l-0.472,0.945l0,0.946l-0.473,0.472l-0.945,0l-0.473,0.474l1.891,1.89l-0.473,0.473l-1.891,-1.891l-1.419,1.418l1.892,1.892l-0.473,0.472l-1.891,-1.891l-0.945,0.946l-8.51,8.982Z" style="fill:#cc79a7;"/><path d="M352.25,40.762c-0.473,0.473 -3.12,2.553 -3.12,0.946c0.945,0 0.945,-0.851 0.284,-0.851c-0.473,0 -0.946,1.04 -0.473,1.512c0.473,0.473 1.985,0.284 3.498,-1.134c0.473,-0.473 3.12,-2.553 3.12,-0.946c-0.945,0 -0.945,0.851 -0.283,0.851c0.473,0 0.946,-1.04 0.473,-1.512c-0.473,-0.473 -1.986,-0.284 -3.499,1.134Z"/><path d="M357.639,46.246c-0.472,0.473 -2.553,3.12 -0.945,3.12c0,-0.945 0.851,-0.945 0.851,-0.284c0,0.474 -1.04,0.946 -1.513,0.474c-0.473,-0.474 -0.283,-1.986 1.135,-3.499c0.472,-0.473 2.552,-3.12 0.945,-3.12c0,0.945 -0.851,0.945 -0.851,0.283c0,-0.472 1.04,-0.945 1.513,-0.472c0.473,0.472 0.284,1.985 -1.135,3.498Z"/><path d="M362.367,18.07c-0.851,-0.188 -0.851,2.459 -0.851,2.459l-0.992,0l14.843,34.226c0,0 1.325,-1.417 1.986,-1.134c0.662,0.283 1.04,2.364 1.04,2.364c0,0 0.946,1.134 1.985,0c1.041,-1.135 -5.956,-11.819 -7.942,-16.547c-1.985,-4.727 -6.996,-16.545 -8.981,-20.044c-0.473,-0.851 -0.851,-1.229 -1.135,-1.324l0.047,0Zm-0.189,3.404c0.378,0 0.851,0.284 1.323,1.513c0,0 10.969,24.772 11.914,27.136c1.039,2.364 -1.041,1.134 -1.041,1.134l-12.953,-29.499c0,0 0.284,-0.284 0.662,-0.284l0.095,0Z" style="fill-rule:nonzero;"/></svg>