<?xml version="1.0" encoding="UTF-8" standalone="no"?><!DOCTYPE svg PUBLIC "-//W3C//DTD SVG 1.1//EN" "http://www.w3.org/Graphics/SVG/1.1/DTD/svg11.dtd"><svg width="100%" height="100%" viewBox="0 0 1034 1296" version="1.1" xmlns="http://www.w3.org/2000/svg" xmlns:xlink="http://www.w3.org/1999/xlink" xml:space="preserve" xmlns:serif="http://www.serif.com/" style="fill-rule:evenodd;clip-rule:evenodd;"><path d="M513.63,4.22c-22.669,-0.096 -412.998,219.063 -423.256,233.619c-15.45,21.915 -11.393,475.228 -1.356,493.722c11.349,20.908 395.613,245.756 414.991,246.898c25.364,1.508 422.946,-227.452 434.328,-249.379c9.25,-17.825 11.501,-468.184 -2.678,-489.469c-10.628,-15.956 -399.765,-235.301 -422.029,-235.391" style="fill:#fff;fill-rule:nonzero;"/><path d="M513.597,8.44c-19.602,0.63 -404.136,213.015 -419.817,231.886c-4.817,6.966 -9.852,86.581 -9.425,244.793c0.388,140.945 4.653,236.63 8.389,244.456c10.117,17.465 386.762,241.406 411.53,244.67c24.628,0.017 418.755,-226.311 430.323,-247.117c10.623,-23.818 8.4,-468.229 -2.453,-485.182c-14.444,-18.697 -397.818,-232.612 -418.547,-233.506m-9.328,974.244l-0.512,-0.011c-24.611,-1.451 -407.862,-229.602 -418.445,-249.103c-9.217,-16.981 -17.06,-471.672 1.614,-498.167c6.966,-9.875 139.308,-85.118 208.311,-123.519c47.168,-26.248 202.297,-111.884 218.377,-111.884c22.585,0.09 412.324,217.403 425.557,237.271c9.683,14.533 10.803,178.535 10.831,248.372c0.045,92.415 -2.025,234.035 -7.916,245.384c-12.221,23.535 -409.071,251.657 -437.817,251.657" style="fill:#595756;fill-rule:nonzero;"/><g><clipPath id="_clip1"><path d="M495.089,67.104l-345.587,199.522c-9.908,5.717 -17.943,19.592 -17.943,30.991l0,399.185c0,11.4 8.035,25.275 17.943,30.991l345.587,199.522c9.908,5.734 25.961,5.734 35.863,0l345.599,-199.522c9.902,-5.716 17.926,-19.591 17.926,-41.659l0,-399.191c0,-0.725 -8.024,-14.6 -17.926,-20.317l-345.599,-199.522c-4.951,-2.864 -11.444,-4.293 -17.931,-4.293c-6.488,0 -12.981,1.429 -17.932,4.293Z" clip-rule="nonzero"/></clipPath><g clip-path="url(#_clip1)"><path d="M894.478,276.98l-254.296,-146.83l-254.314,146.83l0,146.824l254.314,-146.824l254.296,146.824l0,-146.824Z" style="fill:#1f71b8;fill-rule:nonzero;"/><path d="M513.023,56.738l-254.308,146.83l0,293.643l127.154,73.415l0,-293.643l254.313,-146.83l-127.159,-73.415Z" style="fill:#ed9022;fill-rule:nonzero;"/><path d="M131.562,276.98l0,293.643l254.308,146.818l127.153,-73.414l-254.307,-146.813l0,-293.649l-127.154,73.415Z" style="fill:#e62329;fill-rule:nonzero;"/><path d="M131.562,717.438l254.308,146.829l254.307,-146.829l0,-146.813l-254.307,146.813l-254.308,-146.813l0,146.813Z" style="fill:#1f71b8;fill-rule:nonzero;"/><path d="M513.023,937.674l254.302,-146.824l0,-293.638l-127.143,-73.415l0,293.643l-254.313,146.825l127.154,73.409Z" style="fill:#ed9022;fill-rule:nonzero;"/><path d="M894.478,717.443l0,-293.638l-254.296,-146.824l-127.16,73.409l254.303,146.819l0,293.643l127.153,-73.409Z" style="fill:#e62329;fill-rule:nonzero;"/><path d="M894.478,276.98l-254.296,-146.83l0,146.83l254.296,146.824l0,-146.824Z" style="fill:#fff;fill-rule:nonzero;"/><path d="M513.023,56.738l-257.695,148.788l130.541,71.457l258.539,-145.817l-131.385,-74.428Z" style="fill:#595756;fill-rule:nonzero;"/><path d="M131.562,276.98l0,293.643l127.154,-73.409l0,-293.649l-127.154,73.415Z" style="fill:#fff;fill-rule:nonzero;"/><path d="M131.562,717.438l254.308,146.829l0,-146.829l-254.308,-149.784l0,149.784Z" style="fill:#595756;fill-rule:nonzero;"/><path d="M513.023,937.674l254.302,-146.824l-127.143,-73.41l-254.313,146.825l127.154,73.409Z" style="fill:#fff;fill-rule:nonzero;stroke:#fff;stroke-width:1px;"/><path d="M894.478,717.443l0.31,-296.71l-127.463,76.476l0,293.643l127.153,-73.409Z" style="fill:#595756;fill-rule:nonzero;"/></g></g><path d="M876.55,266.623l-345.599,-199.523c-9.902,-5.722 -25.955,-5.722 -35.858,0l-345.592,199.523c-9.903,5.722 -17.938,19.591 -17.938,30.991l0,399.19c0,11.394 8.035,25.275 17.938,30.991l345.592,199.523c9.903,5.728 25.956,5.728 35.858,0l345.599,-199.523c9.902,-5.716 17.931,-19.597 17.931,-41.658l0,-399.197c0,-0.726 -8.029,-14.595 -17.931,-20.317Z" style="fill:none;stroke:#fff;stroke-width:1px;"/><path d="M151.714,1293.8c0,0 -120.02,0.006 -135.335,0c-15.31,-0.005 -16.379,-13.908 -16.379,-13.908l0,-240.264l61.284,35.002l-1.063,158.286l91.493,0l0,60.884Z" style="fill:#fff;fill-rule:nonzero;"/><rect x="187.014" y="1039.63" width="60.226" height="254.173" style="fill:#fff;"/><path d="M409.185,1119.94c0,-11.737 -3.027,-19.923 -9.081,-24.571c-6.049,-4.642 -15.895,-6.966 -29.534,-6.966l-12.677,0l0,61.251l12.964,0c14.702,0 24.757,-2.048 30.181,-6.15c5.429,-4.091 8.147,-11.945 8.147,-23.564m81.838,173.854l-64.694,0l-15.704,-45.113c-5.767,-16.514 -10.955,-28.577 -15.563,-36.224c-4.614,-7.635 -9.098,-12.525 -13.464,-14.663c-4.378,-2.138 -10.021,-3.212 -16.936,-3.212l-6.769,0l-0.45,100.878l-62.539,-36.871l-0.062,-218.962l105.262,0c16.525,0 30.062,4.276 40.634,12.834c10.567,8.552 18.18,18.95 22.838,31.177c4.654,12.226 6.994,23.834 6.994,34.839c0,12.834 -1.952,23.688 -5.84,32.55c-3.894,8.867 -8.001,15.315 -12.322,19.349c-4.316,4.034 -9.177,7.883 -14.55,11.552c6.431,4.765 11.742,10.42 15.923,16.958c4.175,6.544 9.863,19.783 17.071,39.706l20.171,55.202Z" style="fill:#fff;fill-rule:nonzero;"/><path d="M750.656,1293.8l-60.226,0l0,-147.263l-54.319,85.27l-4.749,0l-54.464,-85.27l0,113.757l-58.494,33.506l0,-254.172l54.6,0l61.38,95.352l61.661,-95.352l54.611,0l0,254.172Z" style="fill:#fff;fill-rule:nonzero;"/><path d="M1033.34,1293.8l-60.581,-34.496l0.349,-112.767l-54.313,85.27l-4.755,0l-54.465,-85.27l0,147.263l-58.493,0l0,-254.172l54.606,0l61.374,95.352l61.672,-95.352l54.606,0l0,254.172Z" style="fill:#fff;fill-rule:nonzero;"/></svg>